<?xml version="1.0" encoding="utf-8"?>
<!-- Generator: Adobe Illustrator 19.2.1, SVG Export Plug-In . SVG Version: 6.00 Build 0)  -->
<svg version="1.1" id="layer" xmlns="http://www.w3.org/2000/svg" xmlns:xlink="http://www.w3.org/1999/xlink" x="0px" y="0px"
	 viewBox="0 0 652 652" style="enable-background:new 0 0 652 652;" xml:space="preserve">
<style type="text/css">
	.st0{fill:#FFFFFF;}
	.st1{fill:#000042;}
	.st2{fill:#E5002D;}
</style>
<g>
	<g>
		<path class="st0" d="M90.5,136.5c-7.6,0-13.8,6.2-13.8,13.7c0,1.5,0.5,3.6,0.8,4.6c0.1,0.3,3.1,10.8,93.7,351.5
			c0,0.1,0.1,0.3,0.1,0.3c3.4,10,10.9,18,20.5,22c0,0,0.4,0.2,0.4,0.2c0.1,0,133.8,47.7,133.8,47.7l133.8-47.7
			c0.1,0,0.5-0.2,0.5-0.2c9.7-4,17.2-12.1,20.6-22.1l0.1-0.2c80.4-302.4,93.6-351.3,93.6-351.3l0.1-0.2l0.1-0.2
			c0.3-1,0.8-3.1,0.8-4.6c0-7.6-6.2-13.7-13.8-13.7"/>
		<path class="st1" d="M90.5,141.7c-4.7,0-8.5,3.8-8.5,8.5c0,0.8,0.1,1.5,0.3,2.2l93.6,351.4c2.7,9.1,9.3,16.3,18,20l0.3,0.1l132,47
			l132-47l0.3-0.1c8.7-3.6,15.3-10.9,18-20L570,152.4c0.2-0.7,0.3-1.5,0.3-2.2c0-4.7-3.8-8.5-8.5-8.5
			C559.5,141.7,92.3,141.7,90.5,141.7"/>
		<path class="st0" d="M541.7,154.8c5.7,0,10.4,4.6,10.4,10.4c0,0.9-0.1,1.8-0.3,2.6l-87.9,332.3c-1.6,5.3-5.5,9.6-10.5,11.7
			l-127.2,45.3l-127.2-45.3c-5-2.1-8.9-6.4-10.5-11.7l-87.9-332.3c-0.2-0.8-0.3-1.7-0.3-2.6c0-5.7,4.6-10.4,10.4-10.4
			C113.1,154.8,540.6,154.8,541.7,154.8"/>
		<path class="st0" d="M245.9,76.6L245.9,76.6c-1.9,0-3.6,0.9-4.8,2.4c0,0-5,6.9-5.1,6.9c-1.8-2-6-6.4-6-6.4
			c-1.6-1.7-4.1-2.3-6.3-1.5c-1.6,0.6-2.8,1.8-3.5,3.3c-2.2-1.8-5.1-2-7.3-0.4c-1.5,1.1-2.4,2.9-2.4,4.8c0,0.6,0.2,1.2,0.4,1.8
			c0,0.1,0,0.3,0.1,0.5c0,0,0,0.1,0,0.2c0,0,0-0.1,0-0.2c0.1,0.4,0.4,1,1.1,2.7c2.3,5.3,4.2,9.9,5.7,16.1c0,0,0.3,1.1,0.5,1.9
			c-1.3-0.5-2.5-0.8-3.6-0.8c-3.5-0.1-6.6,1.1-9,3.4c-2.6,2.5-4.1,6.4-4.1,10.3c0,0,0,0.1,0,0.1c0,3.4,0.8,5.9,1.9,8.5
			c-2.7,4.8-3.3,7.2-4.4,11.8l-0.4,1.8c-2,8.1-4.2,9.1-7.6,10.8c0,0-0.6,0.3-0.6,0.3c-2.1,1-3.5,3-3.7,5.2l0,0.5
			c0,2.1,1.1,4,2.9,5.3c1.3,0.9,2.8,1.5,4.3,2c-3.9,5.9-6.1,13-6.1,20.3c0,3.1,0.4,6.2,1.1,8.9c0.7,2.7,3.1,4.6,5.8,4.7
			c0.3,0,0.7-0.1,1-0.1c-0.1,1.6-0.2,3.3-0.2,3.3c0,6.8,1.2,13.5,3.4,18.4c1.4,3.1,4,4.2,6,4.2c-0.8,2.2-1.8,4.4-3.1,6
			c-1.1,1.3-1.6,2.8-1.6,4.4c0,1,0.2,1.9,0.7,2.8c1.1,2.2,3.5,3.6,6.1,3.4c2.4-0.1,4.7-0.9,7-2c-0.6,8.2-5.7,14.3-7.4,16.1
			c-1.2,1.2-1.8,2.8-1.8,4.4l0.2,1.7c0.7,2.2,2.5,3.9,5.1,4.5c2.9,0.7,5.9,0.4,8.7-0.5c0.7,7,2.6,17.9,7.9,26.1c1,1.6,1.1,2.9,1.1,5
			c0,0,0,1.3,0,1.3c0.6,12.1,3,20.3,4.9,26.2c1,3.3,1.8,6,1.8,7.9c0,0-0.3,0-0.3,0c0.1,0-2.4,0.1-2.4,0.1c-1.6,0-3.4,0.1-6.3,0.9
			c-9.7,3-11.6,13.9-11.1,17.5c0.5,3.8,3.2,6.2,7,6.2h31.8c6.4,0,7.6-4.8,8.2-7.1l0.7-2.8l-2.1-2c-6.2-6.1-9.9-15-9.9-24
			c0-11.5,5.6-22.2,15-28.7c1.6,0.7,3.5,1.1,5.8,1.1c0.8,0,1.5-0.3,2.2-0.5c1,0.7,2.1,1.2,3.4,1.4c1.8,0.3,3.6,0.5,5.9,0.4
			c1.6,0,3-0.4,4.3-1c0.6,0.3,1.2,0.7,1.8,0.9c2.5,0.8,9.6,0.8,12.8,0c3.4-0.8,4.9-2.9,5.7-4.3c2.7-0.1,5.6-0.5,8.8-1.2
			c5,13.5,18.7,23.6,26.1,29c0,0,2.1,1.6,2.2,1.6c0,0.2-0.1,0.7-0.1,0.7c-0.4,1.7-2.2,7-4.1,9.4c-1.4,1.8-1.4,1.8-4,2l-0.9,0.1
			c-3.1,0.2-8.2,0.5-11.7,3.4c-5.5,4.7-6.4,12.3-6.4,14.7c0,0.2,0,0.4,0,0.5c0.1,3,2.8,6.3,7,6.3h21.6c2.4,0,5.5-0.4,7.8-3.2
			l0.6-0.7c0,0,1.5-1.8,1.8-2.1c0.1-0.1,1.1-1,1.1-1c1.2-1,2.9-2.3,4.3-4.3c1.1-1.5,1.7-3.4,2.2-5c0,0,0.9-2.4,0.9-2.4
			c1.1-2.6,4.2-6.9,7.2-11c0,0,2.2-3.1,2.2-3.1c2-2.8,3-5.5,3-8.2c0-2.6-0.9-5.3-2.7-8.3c0,0-2.2-3-2.2-3c-2.9-3.6-7.7-9.6-7.7-15.2
			c0-1.3,0.3-2.5,0.9-3.7c2.2,3.4,7,10.4,22.4,25.8c2.2,2.2,2.7,3.1,3.4,4.4c2.6,5.1,6,12.4,7.1,15c0.6,1.3,0.7,2.3,0.7,2.8
			l-0.1,0.8c-0.2,0.7-0.7,1.5-1.3,2.4c0,0-1.2,2.1-1.2,2.1c-1.5,2.7-1.8,5.6-1.8,7.6c0,1.8,0.3,3.6,0.8,5.1c1.8,5.3,6.6,5.3,9.2,5.3
			h20.3c3.8,0,6.4-2.1,7.2-5.9l0-0.2c0,0,0.3-2.6,0.3-2.6c0-3.5-1.3-7.3-3.4-10.1c-0.1-0.1-1.8-1.9-1.8-1.9c-1.5-1.5-2.9-2.9-4-6.2
			c-2-6.1-2.5-11.3-3-16.3c0-0.1-1.1-8.7-1.1-8.7c-0.7-3.7-1.9-5.8-3-7.6c-0.7-1.2-1.4-2.4-2.1-4.2c-0.4-1.2-1.2-10-1.2-18.3l0-2.7
			c0,0,0.1-3.8,0.1-3.8c0-9-1-16.7-3-22.9c13.7-4.9,22.2-14.7,22.2-25.8l0-1.5c-1.1-16.5-17.4-24.9-48.6-24.7c0,0-2.6,0-2.6,0
			c-2.9,0.1-5.4,0-7.6,0c0.5,0,0.9,0,1.3-0.1c6.5-1.1,10.4-4.9,13.5-8c3-3,5.4-5.3,9.9-6.1c3.2-0.5,5.5-2.6,6-5.5
			c0-0.2,0.1-0.5,0.1-0.9c0-1.7-0.7-4.6-4.9-6.7c-6.3-3.1-14-4-21-2.5c-0.2-0.2-0.4-0.6-0.4-0.6c-0.9-1-3.1-2.6-6.9-1.6
			c-7.2,1.9-11.7,6.3-13.8,13.2c-13.8,5.6-15.4,14.3-15.4,17.9l0,0.5c0.7,19.3,29.5,19.1,40.3,19c0,0,0.9,0,0.9,0
			c17.2-0.1,27.1,3.6,27.8,7.1c0,0,0,0.3,0,0.3c0,0.6-0.3,1.3-0.9,2c-1.9,2.4-6,4.3-10.5,4.9c-8.2-7.7-18.4-9.8-28.4-11.7
			c-9.7-1.9-19.8-3.9-29.4-10.7c-10.3-7.4-18.8-11.9-25.6-15.6c-6.4-3.5-10.9-6-14.5-9.3c0.2-0.1,0.5-0.1,0.7-0.2
			c2.3-1.1,3.7-3.1,3.8-5.4c0,0,0-0.3,0-0.3c0-2-1-3.8-2.7-4.9c-3.4-2.2-5.9-5.1-7.3-8.7c-0.9-2.3-2-4.4-3.3-6.3
			c1.1-0.9,2.2-2.5,2.2-5.4l0-0.8c-0.5-7.6-4.7-12.4-7.4-15.6c0,0-1.3-1.5-1.3-1.5c0,0-0.2-0.2-0.3-0.4c0.1-0.1,0.1-0.2,0.1-0.2
			c2.4-3.6,3.6-7.1,3.6-10.8c0-7.8-4.9-13.3-11.8-13.4c-1.4,0-2.6,0.2-3.6,0.5c0.2-0.8,0.5-1.9,0.5-1.9c1.5-6.2,3.5-10.8,5.7-16.1
			c0,0,1.1-2.7,1.1-2.7c0.3-0.8,0.5-1.6,0.5-2.4c0-1.8-0.9-3.6-2.4-4.8c-2.2-1.6-5.2-1.4-7.4,0.4c-0.7-1.5-1.9-2.8-3.5-3.3
			c-2.2-0.8-4.7-0.2-6.3,1.6c0,0-6,6.4-6,6.4c-0.1-0.1-5.1-6.9-5.1-6.9C249.6,77.4,247.8,76.5,245.9,76.6 M361.9,193.8
			c1.3,0.9,3,1.7,5.2,2.2c-3.8-0.3-5.9-0.8-7-1.3C360.6,194.4,361.2,194.1,361.9,193.8z"/>
		<path class="st1" d="M199.2,367.6h-15.9c1.9,1.1,2.9,5,2.9,7.8v39c0,3.5-1.6,6.9-2.8,7.9h13.3v-18.9c0,0,1.1,0.1,2.1,0.1
			c13.2,0,21.3-8.4,21.3-18.9C220,373.8,212.6,367.8,199.2,367.6 M198.3,394.6c-1,0-1.6,0-1.6,0v-18.4c0,0,1,0,2.3,0
			c7.1,0,10.2,3.5,10.2,8.9C209.2,391,204.8,394.5,198.3,394.6"/>
		<path class="st1" d="M252.3,401.2c-1.4-2.6-2.8-3.2-2.8-3.2c5.4-1.8,10.1-7.1,10.1-15.2c0-11.1-7.7-15.3-19.7-15.3h-17.2
			c1.9,1.1,2.9,5,2.9,7.8v39c0,3.5-1.6,6.9-2.8,7.9H236v-22.4l1.4,0c2.6,0,3.1,1.8,3.6,2.7l9.2,19.7h13 M238.5,392.2H236V376h2.8
			c6.7,0,9.8,2.6,9.8,7.9C248.6,388.9,244.7,392.2,238.5,392.2"/>
		<path class="st1" d="M458.8,401.2c-1.4-2.6-2.8-3.2-2.8-3.2c5.4-1.8,10.1-7.1,10.1-15.2c0-11.1-7.7-15.3-19.7-15.3h-17.2
			c1.9,1.1,2.9,5,2.9,7.8v39c0,3.5-1.6,6.9-2.8,7.9h13.3v-22.4l1.4,0c2.6,0,3.1,1.8,3.5,2.7l9.2,19.7h13 M445,392.2h-2.4V376h2.8
			c6.7,0,9.8,2.6,9.8,7.9C455.1,388.9,451.3,392.2,445,392.2"/>
		<path class="st1" d="M318.7,367.6l12.1,20.8c1.6,2.7,2.5,4.3,3.2,6.1h0.1c0.7-1.9,1.7-3.4,3.4-6.2l12.1-20.8h10.4v54.7h-10.5
			c0,0,0-36.7,0-36.7h-0.1c-0.7,2.3-2.2,4.7-3,6.1l-9.9,16.1h-5l-9.9-16.1c-0.7-1-1.8-3.3-2.7-6.1l-0.2,0v36.6h-13.2
			c1.2-1,2.8-4.4,2.8-7.9v-39c0-2.7-1-6.6-2.9-7.8"/>
		<path class="st1" d="M381.9,422.2h-13.3c1.2-1,2.8-4.4,2.8-7.9v-39c0-2.7-1-6.6-2.9-7.8l13.4,0"/>
		<path class="st1" d="M267.6,422.2c1.2-1,2.8-4.4,2.8-7.9v-39c0-2.7-1-6.6-2.9-7.8l31.2,0v8.9h-17.7v13.2h15.6v8.8h-15.6v14.9h19
			l-3.7,9"/>
		<path class="st1" d="M391.3,422.2c1.2-1,2.8-4.4,2.8-7.9v-39c0-2.7-1-6.6-2.9-7.8l31.2,0v8.9h-17.7v13.2h15.6v8.8h-15.6v14.9h19
			l-3.7,9"/>
		<path class="st1" d="M232.2,487.7c1.2-1,2.8-4.4,2.8-7.9v-39c0-2.7-1-6.6-2.9-7.8l31.2,0v8.9h-17.7v13.2h15.6v8.8h-15.6v14.9h19
			l-3.7,9"/>
		<path class="st1" d="M423.4,487.7c1.2-1,2.8-4.4,2.8-7.9v-39c0-2.7-1-6.6-2.9-7.8l31.2,0v8.9h-17.7v13.2h15.6v8.8h-15.6v14.9h19
			l-3.7,9"/>
		<path class="st1" d="M197.8,487.7c1.2-1,2.8-4.4,2.8-7.9v-39c0-2.7-1-6.6-2.9-7.8l13.4,0v45.7h18.2l-3.7,9"/>
		<path class="st1" d="M353.7,478.1v-9.5c0-3.5-1.6-6.9-2.8-7.9H364l0.1,23.3c-4.6,2.5-12.1,4.4-18.6,4.4
			c-17.2,0-27.3-11.1-27.3-27.7c0-17.1,11-28.3,30.2-28.3c5.1,0,9.9,1.2,13.1,2.5l0,10.4c-3.2-1.9-8.6-3.5-13.7-3.5
			c-10.7,0-18.2,6.2-18.2,18.9c0,11.5,6.1,18.3,17.1,18.3C349.3,479,351.9,478.7,353.7,478.1"/>
		<path class="st1" d="M313.7,480c-0.7-2.1-15.9-46.9-15.9-46.9h-10.7c0,0-15.2,44.9-15.9,46.9c-1.2,3.3-2.7,6.6-4.2,7.7h12.4
			l3.5-11.1h19.1l3.6,11.1h12.4C316.4,486.6,314.9,483.4,313.7,480 M285.3,468.3l4.6-13.9c1-3.1,1.8-5.9,2.4-9.1h0.1
			c0.6,3.2,1.3,5.9,2.3,8.9l4.7,14H285.3z"/>
		<path class="st1" d="M373.2,441c0-3.5-1.6-6.9-2.8-7.9l13,0V468c0,7.2,2.6,11.7,11.1,11.7c7.9,0,11.2-4.5,11.2-11.6v-34.9H416
			v35.4c0,11.2-6.5,19.8-22.1,19.8c-16.2,0-20.6-8.8-20.6-19.7"/>
		<path class="st2" d="M297.7,303c-5.6-0.3-13,1.1-17.2,3.5c0,5.8-0.6,11.8-1.7,16.9c3.8,2.8,12,6,16.5,7c3.5-2.6,8.1-8.2,10.6-12.3
			C304.4,312.3,301.6,306.7,297.7,303"/>
		<path class="st2" d="M304.6,294.2c0,0-0.9,1.6-5.5,1.5c0.6,0.8,1.8,3.4,2,4.2c0,0,3.2,0,6.1,0.9c2.7,2.5,5.4,6.2,7,11.2
			c0,0-1.3,2.9-3.4,6.2c1.7,2.7,3.2,5.7,4.2,10.1c-1.8,8.3-7.9,14.4-9.3,15.6c-0.9,0.8-1.8,0.6-1.4-0.9c0.3-1.2,0.6-2.3,1-4.3
			c-3.1,0.1-6.7-0.1-9.5-0.6c-4.2,3.6-7.1,5.4-11.8,7.5c0.5,1.2,1.8,3,2.4,3.6c0.9,1,0.5,1.8-0.9,1.8c-7.1-0.3-13-2.8-17.3-6.2
			c-1-0.8-0.7-1.7,0.5-1.7c1.2,0,3.6-0.2,5.5-0.4c-0.8-4.3-0.9-10.6-0.5-14.4c-5.2-1.5-8.3-3.2-12.2-5.7c-0.8,1.2-2.2,3-2.8,4
			c-0.5,1-1.3,0.9-1.5-0.8c-0.8-6.7,0.5-12.6,3-17.6c0.8-1.5,1.3-1.5,2.2-0.6c0.4,0.4,1.4,1.3,1.9,1.7c3.4-3.1,7.9-5.9,12-7.6
			c0.2-2.2,0.6-4.4,1-6.5c0,0-2-0.2-2.9-1.1c-0.4-0.4-0.9-0.4-1.3-0.2c-1.8,0.9-5.1,0.1-5.7-0.2c-9,5-16.5,16.8-16.5,29.5
			c0,19.3,15.6,34.9,34.9,34.9c19.2,0,34.9-15.6,34.9-34.9C320.4,310.6,313.9,300.3,304.6,294.2"/>
		<path class="st1" d="M246.8,82.1c-0.5-0.6-1.3-0.6-1.7,0c-2,2.6-7.5,10.3-7.9,10.8c-0.5,0.5-1.1,0.6-1.7,0
			c-0.6-0.6-7.8-8.3-9.2-9.9c-0.5-0.5-1.4-0.3-1.5,0.5c-0.1,2-0.5,6.9-0.5,7.7c-0.1,0.8-0.6,1.1-1.3,0.3c-1.5-1.6-5.3-5.7-6-6.4
			c-0.8-0.7-1.7,0.1-1.3,1c2.8,6.7,5.2,11.8,7.1,19.5c7.8-2.5,16.4-3,23.2-3c6.8,0,15.5,0.5,23.2,3c1.9-7.6,4.3-12.8,7.1-19.5
			c0.4-0.9-0.5-1.7-1.3-1c-0.8,0.7-4.5,4.8-6,6.4c-0.8,0.8-1.2,0.5-1.3-0.3c-0.1-0.8-0.4-5.7-0.5-7.7c-0.1-0.9-1-1.1-1.5-0.5
			c-1.5,1.5-8.6,9.2-9.2,9.9c-0.6,0.6-1.2,0.5-1.7,0C254.3,92.4,248.8,84.7,246.8,82.1"/>
		<path class="st1" d="M424.2,343.9c-1.4-1.8-4.6-3.6-6.6-9.6c-3.3-10.2-2.8-17.8-4.2-25.7c-0.9-4.7-2.8-5.6-4.8-10.8
			c-0.9-2.3-1.7-14.6-1.5-23c0.2-7.1,0.1-20.6-4.4-29.7c14.7-3.5,24.3-12.7,23.6-23.8c-1-16.2-21.8-20.1-43.5-20
			c-6.4,0-29,1.4-28.4-6.6c0.2-3.8,6-6.2,8.5-6.4c2.1,1.6,4.8,3.8,10.2,2.9c10.2-1.8,11.8-12.1,23.4-14.1c2-0.3,2.9-1.9-0.3-3.5
			c-7.2-3.6-16.2-3.5-22-0.9c-1.3,0.6-1.4-0.1-1.1-1.2c0.2-0.6,0.2-0.6,0.4-1c0.4-1.2-0.2-1.8-1.9-1.3c-8.6,2.2-10.4,8.2-11,12
			c-10.2,3.4-14.6,8.8-14.4,14.4c0.5,14.8,26.9,14.2,36.2,14.1c9.7,0,30.9,1.2,32.8,11.3c1.3,6.8-7.9,13-18,13.6
			c-14-15.7-37.2-8.1-59-23.6c-24.3-17.3-37.6-18.6-46.3-31.6c-0.5-0.7-0.4-2,1.3-1.7c2.6,0.4,5,0.1,6.2-0.5
			c1.1-0.5,1.3-1.4,0.6-1.8c-3.5-2.2-7.1-5.7-9.3-11.1c-2.2-5.6-5-8.7-7.4-10.9c-0.8-0.8-0.5-2,1-1.9c0.8,0.1,2.1,0.5,3,0.8
			c1.4,0.4,2.1,0.1,2-2c-0.5-7.1-5.3-11.3-7.6-14.3c-2.7-3.5-2.8-3-0.4-6.6c2.1-3.1,2.7-5.7,2.7-8c0-4.5-2.5-8.3-6.8-8.4
			c-1.6,0-3.3,0.6-4.2,0.9c-0.9,0.3-1.5-0.1-2-0.6c-1-1.2-2.2-2.8-4.6-3.8c-9-3.5-30.4-3.7-40.1-0.4c-3.6,1.2-4.1,2.7-5.7,4.4
			c-0.8,0.8-1.5,0.8-2.1,0.5c-1-0.6-2.4-1.2-4-1.2c-5.3-0.2-7.9,4.5-7.8,8.7c0,2.8,0.7,4.8,1.7,7.1c0.6,1.4,0.4,2.4,0.1,3
			c-3.2,5.5-3.4,7.1-4.9,13.2c-2.7,10.9-6.9,12.4-10.9,14.4c-1,0.5-1.2,1.6-0.1,2.4c1.7,1.2,4.8,2,8,2.3c1.7,0.2,1.8,1.4,1,2.2
			c-9.6,10.1-9.5,22.8-7.6,29.4c0.3,1.2,1.9,1.3,2.3-0.1c1.5-4.4,2.6-7.4,6.3-10.2c1.3-1.1,2.6-0.2,1.9,1.3
			c-5,10.9-4.6,25.8-0.7,34.6c0.9,2,2.2,1.2,2.5,0.3c0.5-1.4,1.1-3.6,2.1-4.9c0.6-0.7,1.4-0.7,1.8,0c2.7,5.2,0.5,14.3-4.3,20.2
			c-1.1,1.3-0.2,2.4,0.9,2.3c3.2-0.1,6.7-1.5,9.5-4.5c1-1.1,2.1-0.8,2.4,0.6c2.5,12.1-4,22-8.3,26.6c-0.9,0.9-0.4,1.8,1,2.2
			c3,0.7,6.9,0.1,9.8-2.3c1.2-1,2.4-0.8,2.5,1.4c0.1,1.1,0.5,17.9,7.4,28.7c2.1,3.2,1.8,5.8,2,8.8c1,21.2,8.2,29.7,6.4,36.8
			c-0.6,2.3-3.1,2.5-4.5,2.6c-3.2,0.3-4.3-0.2-7.8,0.9c-6.4,2-7.9,9.9-7.6,12.1c0.2,1.4,0.9,1.8,1.9,1.8h31.8c2.2,0,2.6-0.5,3.3-3.2
			c-7.2-7-11.5-17.2-11.5-27.7c0-14.7,8-28,20.2-34.9c0,0,0.3,2.3,5.7,2.2c1.8,0,1.9-1.1,3-1c1.6,0.2,0.9,1.6,3.5,2.1
			c1.6,0.3,3.1,0.4,4.9,0.3c2.1,0,2.8-0.8,3.3-1.4c0.7-0.9,1.8-0.7,2.3,0c0.4,0.6,0.9,1.1,2,1.4c1.6,0.5,7.8,0.5,10.2,0
			c1.8-0.4,2.3-1.5,2.9-2.8c0.4-0.7,0.6-1.6,1.9-1.5c4.1,0,8.1-0.8,10.4-1.3c3.3-0.7,4.2,0.6,4.8,2.4c4.6,13.8,20.1,24.1,26.9,29.2
			c2,1.5,2.4,3.3,1.9,5.8c-0.3,1.7-2.3,8-5.1,11.5c-2.4,3.1-3.5,3.6-7.5,3.9c-1.9,0.2-7.2,0.1-9.8,2.3c-4.1,3.5-4.7,10.1-4.6,10.9
			c0,0,0.1,1.7,1.9,1.7h21.6c2,0,3-0.4,3.8-1.3c0.5-0.7,1.5-1.9,2.5-3.1c1-1.2,3.5-2.6,5-4.7c1.1-1.6,1.6-4.2,2.6-6.5
			c1.7-4,6.1-9.7,10-15.1c2.5-3.5,2.8-6.4,0.1-11c-2-3.3-15.8-16.2-8.6-28c1.5-2.4,4-4,6.1-2c2.2,2.1,2.9,6.9,23.7,27.7
			c2.6,2.6,3.4,3.9,4.3,5.6c2.8,5.4,6.2,12.9,7.3,15.4c1.4,3.4,1.2,5.7,0.7,7.1c-0.7,2.1-1.8,3.4-2.9,5.4c-1.4,2.6-1.4,6.3-0.6,8.6
			c0.6,1.7,1.9,1.8,4.4,1.8h20.3c1.9,0,2-1,2.3-2.1C426.8,350.6,426.3,346.7,424.2,343.9 M221.5,129.6c0.6-0.4,2.3-1.4,4.6-2.2
			c3-1.1,3.3-1.5,2.8-4.6c-0.2-1.4,0.8-2,2.3-2.6c1.1-0.4,4.6-1.4,7-1.9c1,0.7,6.3,8.1,6.8,8.8c0.5,0.7,1.3,0.7,1.8,0
			c0.5-0.7,5.7-8.2,6.8-8.9c3.4,0.7,6.7,1.7,9.5,2.6c2.6,0.9,3.7,1.9,4.9,5.2c0.9,2.6,1.3,6,1.3,6s-1.7,0.4-4.2,0.1
			c-2.9-0.3-4.5-1.2-5.9-0.9c-2.4,0.5-5.9,3.8-6.2,5c-0.3,1.6-0.1,4.5,0.2,5.8c0.2,1,1.2,0.9,1.5,0.1c0.5-1.9,1.3-4.4,3.5-4.6
			c0.8,0,1.8,0.5,3.3,0.7c0.9,0.1,1.7,0.1,2.5-0.4c1.8-1.2,2.9-2.6,4.1-3.2c0,0,1.8,2.7,2.5,5.3c0.6,1.9-0.4,3.4-3.6,4.9
			c-1.8,0.9-4.3,2.4-5.9,3.8c-1.6,1.4-1.2,3.1-0.4,4.3c1.4,2.4,2.7,5.6,2.9,8.3c0.1,1.2-0.4,2.1-1.3,2.7c-1.2,0.7-3.2,1.2-5.8,1
			c-2.7-0.1-6.3-3.5-9.1-4.4l0.6-4.4c0,0,4.3-2.7,6.8-5c0.6-0.5,0.3-1.6,0.3-2.3c-2.3-0.7-6.2-1.3-9.2-1.3c-2.3,0-5.3,0.4-7.4,0.8
			c0.6-2.9,1.3-9,0.3-12.3c-0.4-1.2-4.5-4.5-6.9-5c-1.4-0.3-3,0.6-5.9,1c-2.5,0.3-4.8-0.4-4.8-0.4S221.4,129.7,221.5,129.6z
			 M244.4,177.1c0.2,1,0.5,4.4-0.8,6.3c-0.4,0.5-1.4,0.7-2,0c-0.8-1-2.1-3-4.7-4c-1.1-0.4-5.7-0.7-4.3-7.6c0.1-0.7,0.4-1.2,1.5-1.5
			c1.4-0.4,3.2-1.3,5.6-3.8c0.6-0.6,1.9-1.1,3.2-0.7c1,0.3,2.1,0.5,3,0.5c0.9,0,2-0.2,3-0.5c1.4-0.4,2.6,0,3.2,0.7
			c2.4,2.5,4.1,3.3,5.7,3.9c1.1,0.4,1.2,1.5,0.8,2.2c-0.4,0.7-0.8,1.4-1.1,2.5c-0.2,1.1-0.6,3-2.6,4.5c-0.9,0.6-2.4,1.8-4.2,3.8
			c-0.7,0.8-1.9,0.6-2.1-0.4c-0.2-1.2,0.2-4.6-2.6-6.8C245.1,175.6,244.2,175.9,244.4,177.1z M229.5,163.9c-0.9-0.5-1.4-1.4-1.3-2.7
			c0.2-3.5,2.1-7.6,4-9.8c1.1-1.3,3.2-1.6,4.7-0.3c2.7,2.3,6.9,5,6.9,5l0.5,4.4c-2.8,0.9-6.3,4.3-9.1,4.4
			C232.7,165.1,230.7,164.6,229.5,163.9z M220.9,143.9c-1.2-0.8-2-3.4,0.9-9.6c1.2,0.6,3.5,2.4,5.3,3.5c0.8,0.5,1.6,0.5,2.5,0.4
			c1.4-0.2,2.5-0.7,3.3-0.7c2.1,0.1,2.2,4.9,2.2,5.5c0,0.6-0.4,0.7-0.8,0.4c-1-0.8-1.7-0.8-2.4-0.8c-0.9,0-3.2,0.9-4.2,1.2
			C226.8,144,222.9,145.2,220.9,143.9z M244.2,200.2c-1.9,5.7-12.2,10.1-13.8,21.8c-0.2,1.3-1.6,1.3-2.1,0.2
			c-2.9-5.9-1.8-11.1,0.6-13.8c3.2-3.6,9.2-5.7,13.3-9.3C243.7,197.8,244.6,199,244.2,200.2z M251.4,250.2c-1.1,0.5-2.1-0.3-1.4-1.7
			c2.3-4.7,3.6-9.5,3.6-14.4c0-2.8-0.3-7.3-1.1-9.4c-0.4-1-1.3-1-2.2-0.4c-3,2.1-5.8,8.3-7.5,13.2c-0.5,1.5-2.1,1.8-2.5-0.2
			c-2.1-10.7,2.4-17.6,6.8-24.8c2.7-4.5,5.2-9.4,6.8-15.2c0.4-1.4,1.7-1.2,2.1-0.3c1.2,3.2,0.3,8.3-0.5,10.7
			c-1.6,5.2-1.5,9.8-0.1,12.4c0.9,1.8,2,1.4,2.5,0.2c2.6-7.5,7.7-10.8,12.3-14.1c5.6-3.9,11-7.6,10.8-20.6c0-1.9,1.8-1.8,2.3-0.6
			c4.9,11.3,1,20.3-3,27.9c-1.9,3.7-3.9,7.4-4.9,12.1c-0.3,1.3-1.5,1.7-2.3,0c-1-2.1-1.7-6.7-1.1-10.1c0.3-2-1.5-2.6-2.8-0.5
			c-2.2,3.5-3.7,8.2-4.9,13.2C262.3,236.7,260.5,246.2,251.4,250.2z M399.4,267.3c-0.7,3.4-4.4,5.3-6.4,1c-1.4-2.8-5.3-18-15.9-23.6
			c-3.7-2-7,0.3-5.7,3.8c2,5,2.8,9.8,2.2,13.9c-0.4,2.5-3.7,3.6-5.7,0.6c-1.2-1.8-2.7-5-4.5-6.6c-3.2-3.1-6.4-3.1-10.2-2.6
			c-3.8,0.5-15.3,4.9-18.8,0.5c-2.2-2.7-5.2-7.6-3.7-14.4c0.7-3.1-3.8-2.8-5.7-1.6c-5.7,3.9-3.5,17.1-3.1,19.6
			c0.4,2.9,0.6,5.2-1.9,7.6c-3.9,3.7-10.1,10.4-12.6,12.2c-2.5,1.8-5.1,1.4-6.9,3.1c-1.3,1.3-1.3,4.7-3.5,5.4
			c-1.1,0.3-3.2,0.5-5,0.2c-1.7-0.2-2.5-0.4-2.9-3.1c-0.2-1.2-2.4-1.6-3.3-0.1c-0.7,1.1-1.2,2-2.7,2.4c-1.8,0.5-3.4,0.4-5.2,0.2
			c-1.6-0.2-1.9-0.7-2-1.9c0-0.5-0.1-1.1-0.1-1.5c-0.1-0.9-1.8-1.1-2.6-0.2c-0.8,1-1,1.9-3.2,2c-1.2,0-4.6,0-3.6-3.9
			c0.6-2.2,2.5-9.2,10.3-10.7c3-0.6,11.4,0.3,14.2-0.2c3-0.6,5.3-2.4,5.3-4.4c0-2-6-1.6-6.6-3.4c-1.6-4.4,10-5.1,9.9-9.9
			c0-2.8-3.5-2.8-4-4.8c-1.2-4.2,3.5-6.9,3.5-11.5c0-6.1-3.4-9.5-4.4-14.3c-0.9-4.6,0.1-9.8,2.1-12.9c1.4-2.2,2.5-2.7,5.7-3.2
			c10.2-1.4,25.3,10.2,29.1,12.5c12.3,7.7,19.2,9.2,34.6,12c9.2,1.7,19.1,2.5,26.9,12.9C397.1,248.2,401.2,259.2,399.4,267.3z"/>
	</g>
</g>
</svg>
